# xmcd
# 
# Track frame offsets:
#     183
#     14360
#     25600
#     39263
#     50040
#     63503
#     76020
#     86318
#     96193
#     107550
#     117700
#     128930
#     143298
#     152745
#     164083
#     175995
#     187055
# 
# Disc length: 2629
# 
# Revision: 2
# Processed by: cddbd v1.5.2PL0 Copyright (c) Steve Scherf et al.
# Submitted via: BonkEnc v1.0rc1
# 
DISCID=da0a4311
DTITLE=Various Artist - The Starts Of Country Music CD2
DYEAR=0
DGENRE=Country
TTITLE0=David Allen Coe - Ride Me down
TTITLE1=George Jones - You Comb Her Hair
TTITLE2=Hank Williams - Ramblin' Man
TTITLE3=Jim Reeves - He'll Have To Go
TTITLE4=Jerry Lee Lewis - The Ballad Of Billy Joe
TTITLE5=Freddy Fender - Silver Wings
TTITLE6=Willie Nelson - Broken Promises
TTITLE7=Johnny Cash - Rock Island Line
TTITLE8=Marty Robbins - A White Sport Coat
TTITLE9=Jim Reeves - Partners
TTITLE10=Patsy Cline - Just Out Of Reach
TTITLE11=Marty Robbins - Cool Water
TTITLE12=Jim Reeves - Billy Bayou
TTITLE13=Johnny Cash - Big River
TTITLE14=Conway Twitty - Sittin' In A Dim Cafe
TTITLE15=George Jones - Once A Day
TTITLE16=Jim Reeves - Getting Better
EXTD=ID3G: 2
EXTT0=
EXTT1=
EXTT2=
EXTT3=
EXTT4=
EXTT5=
EXTT6=
EXTT7=
EXTT8=
EXTT9=
EXTT10=
EXTT11=
EXTT12=
EXTT13=
EXTT14=
EXTT15=
EXTT16=
PLAYORDER=
